<mxfile host="Electron" modified="2024-05-05T09:30:33.498Z" agent="Mozilla/5.0 (Macintosh; Intel Mac OS X 10_15_7) AppleWebKit/537.36 (KHTML, like Gecko) draw.io/22.1.21 Chrome/120.0.6099.109 Electron/28.1.0 Safari/537.36" etag="NHvPeLmYnzS1ZyolBXz3" version="22.1.21" type="device">
  <diagram name="Page-1" id="lA8UQ0UVZcyF2iLDqDpw">
    <mxGraphModel dx="1986" dy="2269" grid="1" gridSize="10" guides="1" tooltips="1" connect="1" arrows="1" fold="1" page="1" pageScale="1" pageWidth="850" pageHeight="1100" math="0" shadow="0">
      <root>
        <mxCell id="0" />
        <mxCell id="1" style="locked=1;" parent="0" />
        <mxCell id="2U8j9AMNokQtlAU-nvTm-28" value="" style="rounded=0;whiteSpace=wrap;html=1;fontFamily=IBM Plex Sans;fontSource=fonts%2FIBMPlexSans-Regular.woff;fontSize=14;spacingBottom=-28;spacingTop=0;labelPosition=-100;verticalLabelPosition=top;align=center;verticalAlign=bottom;spacingLeft=9;spacing=0;expand=0;recursiveResize=0;spacingRight=0;container=1;collapsible=0;" parent="1" vertex="1">
          <mxGeometry x="20" y="40" width="700" height="500" as="geometry">
            <mxRectangle width="670" as="alternateBounds" />
          </mxGeometry>
        </mxCell>
        <mxCell id="2U8j9AMNokQtlAU-nvTm-29" value="" style="rounded=0;whiteSpace=wrap;html=1;strokeColor=none;fillColor=#1192E8;" parent="2U8j9AMNokQtlAU-nvTm-28" vertex="1">
          <mxGeometry width="7" height="37" as="geometry" />
        </mxCell>
        <mxCell id="2U8j9AMNokQtlAU-nvTm-30" value="IBM Cloud" style="text;html=1;strokeColor=none;fillColor=none;align=left;verticalAlign=middle;whiteSpace=wrap;rounded=0;fontFamily=IBM Plex Sans;fontSource=fonts%2FIBMPlexSans-Regular.woff;fontSize=14;" parent="2U8j9AMNokQtlAU-nvTm-28" vertex="1">
          <mxGeometry x="51" y="8" width="163" height="20" as="geometry" />
        </mxCell>
        <mxCell id="2U8j9AMNokQtlAU-nvTm-31" value="" style="shape=image;aspect=fixed;image=data:image/svg+xml,PD94bWwgdmVyc2lvbj0iMS4wIiBlbmNvZGluZz0iVVRGLTgiPz4KPHN2ZyB3aWR0aD0iMzNweCIgaGVpZ2h0PSIzMXB4IiB2aWV3Qm94PSIwIDAgMzMgMzEiIHZlcnNpb249IjEuMSIgeG1sbnM9Imh0dHA6Ly93d3cudzMub3JnLzIwMDAvc3ZnIiB4bWxuczp4bGluaz0iaHR0cDovL3d3dy53My5vcmcvMTk5OS94bGluayI+CiAgICA8IS0tIEdlbmVyYXRvcjogU2tldGNoIDUzICg3MjUyMCkgLSBodHRwczovL3NrZXRjaGFwcC5jb20gLS0+CiAgICA8dGl0bGU+SUJNIENsb3VkIEJsYWNrPC90aXRsZT4KICAgIDxkZXNjPkNyZWF0ZWQgd2l0aCBTa2V0Y2guPC9kZXNjPgogICAgPGcgaWQ9IlBhZ2UtMSIgc3Ryb2tlPSJub25lIiBzdHJva2Utd2lkdGg9IjEiIGZpbGw9Im5vbmUiIGZpbGwtcnVsZT0iZXZlbm9kZCI+CiAgICAgICAgPGcgaWQ9IklCTS1DbG91ZC1CbGFjayIgdHJhbnNmb3JtPSJ0cmFuc2xhdGUoMC43ODQ3MjIsIDAuNTAwMTI1KSIgZmlsbD0iIzAwMDAwMCI+CiAgICAgICAgICAgIDxwYXRoIGQ9Ik0yNy4xMDIxLDI3LjAxMDYgQzI1Ljg3MDEsMjcuODc5NiAyNC4zNjExLDI4LjI2NzYgMjIuODUzMSwyOC4yNjc2IEw3LjAwNDEsMjguMjY3NiBDNC4xMTIxLDI4LjI3NDYgMS43NjIxLDI1LjkzNDYgMS43NTUxLDIzLjA0MjYgQzEuNzQ5MSwyMC40MTA2IDMuNjk3MSwxOC4xODM2IDYuMzA1MSwxNy44Mzg2IEM2LjQxMTEsMTkuMTYxNiA2Ljc4NzEsMjAuNDQ5NiA3LjQwOTEsMjEuNjIxNiBDNy41OTUxLDIxLjk5MTYgOC4wNDYxLDIyLjE0MDYgOC40MTYxLDIxLjk1NDYgQzguNzg2MSwyMS43Njc2IDguOTM1MSwyMS4zMTc2IDguNzQ4MSwyMC45NDc2IEw4LjczMDEsMjAuOTEyNiBDNy4xMzIxLDE3LjkzNTYgNy40MjkxLDE0LjIxNzYgOS42NzIxLDExLjY4OTYgQzEzLjQ4NjEsNy4zOTI2IDE5Ljc4NzEsOC4wNTI2IDIyLjc1NzEsMTIuMjgxNiBDMjAuMzM0MSwxMi4zNDc2IDE4LjA0NzEsMTMuNDE1NiAxNi40NDExLDE1LjIzMDYgQzE2LjE2MTEsMTUuNTM1NiAxNi4xODExLDE2LjAxMDYgMTYuNDg1MSwxNi4yOTA2IEMxNi43ODkxLDE2LjU3MTYgMTcuMjY0MSwxNi41NTI2IDE3LjU0NTEsMTYuMjQ3NiBMMTcuNTY2MSwxNi4yMjI2IEMxOS41OTUxLDEzLjkyMzYgMjIuODg0MSwxMy4wNTI2IDI1LjcwMzEsMTQuMjYzNiBDMzEuMTY1MSwxNi42MDk2IDMxLjgxMDEsMjMuNjkyNiAyNy4xMDIxLDI3LjAxMDYgTTI0LjU4NTEsMTIuOTE3NiBDMjIuMDU0MSw4LjE3NTYgMTYuMTU5MSw2LjM4MjYgMTEuNDE2MSw4LjkxMzYgQzguNDY1MSwxMC40ODg2IDYuNTI5MSwxMy40Njg2IDYuMjkwMSwxNi44MDY2IEMyLjU4NDEsMTcuMjA0NiAtMC4wOTc5LDIwLjUzMjYgMC4zMDExLDI0LjIzOTYgQzAuNjY5MSwyNy42NjU2IDMuNTU5MSwzMC4yNjM2IDcuMDA0MSwzMC4yNjc2IEwyMy4wMDQxLDMwLjI2NzYgQzI3LjgzNTEsMzAuMjcwNiAzMS43NTMxLDI2LjM1NzYgMzEuNzU2MSwyMS41MjY2IEMzMS43NTkxLDE3LjMwMTYgMjguNzQxMSwxMy42Nzg2IDI0LjU4NTEsMTIuOTE3NiIgaWQ9IkZpbGwtMSI+PC9wYXRoPgogICAgICAgICAgICA8ZyBpZD0iR3JvdXAtNSIgdHJhbnNmb3JtPSJ0cmFuc2xhdGUoMjcuMDAwMDAwLCA4LjI2NzcwMCkiPgogICAgICAgICAgICAgICAgPHBhdGggZD0iTTQuOTAyOCwwLjkxOTcgQzQuNjkzOCwwLjU1NjcgNC4yMjk4LDAuNDMyNyAzLjg2NjgsMC42NDE3IEMzLjg2NjgsMC42NDE3IDMuODY2OCwwLjY0MTcgMy44NjY4LDAuNjQyNyBMMC44NDY4LDIuMzg1NyBDMC40Nzg4LDIuNTg2NyAwLjM0MzgsMy4wNDc3IDAuNTQ0OCwzLjQxNTcgQzAuNzQ1OCwzLjc4MzcgMS4yMDY4LDMuOTE4NyAxLjU3NDgsMy43MTc3IEMxLjU4NDgsMy43MTE3IDEuNTk0OCwzLjcwNTcgMS42MDQ4LDMuNjk5NyBMNC42MjQ4LDEuOTU2NyBDNC45ODc4LDEuNzQ2NyA1LjExMTgsMS4yODI3IDQuOTAyOCwwLjkxOTciIGlkPSJGaWxsLTMiPjwvcGF0aD4KICAgICAgICAgICAgPC9nPgogICAgICAgICAgICA8cGF0aCBkPSJNMjIuNjgxMiw2LjgwMjYgQzIzLjA0MzIsNy4wMTI2IDIzLjUwNzIsNi44ODg2IDIzLjcxNzIsNi41MjU2IEwyMy43MTcyLDYuNTI1NiBMMjUuNDYxMiwzLjUwNTYgQzI1LjY2ODIsMy4xNDA2IDI1LjU0MDIsMi42Nzc2IDI1LjE3NjIsMi40NzA2IEMyNC44MTUyLDIuMjY2NiAyNC4zNTcyLDIuMzg4NiAyNC4xNDcyLDIuNzQ2NiBMMjIuNDAzMiw1Ljc2NjYgQzIyLjE5NDIsNi4xMjk2IDIyLjMxODIsNi41OTM2IDIyLjY4MTIsNi44MDI2IiBpZD0iRmlsbC02Ij48L3BhdGg+CiAgICAgICAgICAgIDxwYXRoIGQ9Ik0xNi4wMDQ0LDUuMDE0MSBDMTYuNDIzNCw1LjAxNDEgMTYuNzYzNCw0LjY3NDEgMTcuMzM1NCw0LjI1NTEgTDE3LjMzNTQsMC43NjcxIEMxNi43Njg0LDAuMzQ4MSAxNi40MzI0LDAuMDA1MSAxNi4wMTM0LDAuMDAwMSBDMTUuNTk0NCwtMC4wMDQ5IDE1LjI1MTQsMC4zMzExIDE1LjMzNTQsMC43NTAxIEwxNS4zMzU0LDAuNzY3MSBMMTUuMzM1NCw0LjI1NTEgQzE1LjI0NjQsNC42NzQxIDE1LjU4NTQsNS4wMTQxIDE2LjAwNDQsNS4wMTQxIiBpZD0iRmlsbC04Ij48L3BhdGg+CiAgICAgICAgICAgIDxwYXRoIGQ9Ik04LjI5Miw2LjUyNDggQzguNTA0LDYuODg1OCA4Ljk2OSw3LjAwNjggOS4zMzEsNi43OTQ4IEM5LjY4OCw2LjU4NDggOS44MTEsNi4xMjY4IDkuNjA2LDUuNzY1OCBMNy44NjIsMi43NDU4IEM3LjY1NSwyLjM4MTggNy4xOTIsMi4yNTM4IDYuODI4LDIuNDYwOCBDNi40NjMsMi42Njc4IDYuMzM1LDMuMTMwOCA2LjU0MiwzLjQ5NDggQzYuNTQ0LDMuNDk4OCA2LjU0NiwzLjUwMTggNi41NDgsMy41MDQ4IEw4LjI5Miw2LjUyNDggWiIgaWQ9IkZpbGwtMTAiPjwvcGF0aD4KICAgICAgICAgICAgPGcgaWQ9Ikdyb3VwLTE0IiB0cmFuc2Zvcm09InRyYW5zbGF0ZSgwLjAwMDAwMCwgOC4yNjc3MDApIj4KICAgICAgICAgICAgICAgIDxwYXRoIGQ9Ik00LjE2MzEsMi4zODYgTDEuMTQzMSwwLjY0MiBDMC43ODIxLDAuNDMgMC4zMTcxLDAuNTUxIDAuMTA0MSwwLjkxMiBDLTAuMTA3OSwxLjI3MyAwLjAxMzEsMS43MzkgMC4zNzQxLDEuOTUgQzAuMzc4MSwxLjk1MiAwLjM4MTEsMS45NTQgMC4zODQxLDEuOTU2IEwzLjQwNTEsMy43IEMzLjc2NjEsMy45MTIgNC4yMzExLDMuNzkxIDQuNDQzMSwzLjQzIEM0LjY1NTEsMy4wNjkgNC41MzUxLDIuNjA0IDQuMTczMSwyLjM5MiBDNC4xNzAxLDIuMzkgNC4xNjYxLDIuMzg4IDQuMTYzMSwyLjM4NiBaIiBpZD0iRmlsbC0xMiI+PC9wYXRoPgogICAgICAgICAgICA8L2c+CiAgICAgICAgPC9nPgogICAgPC9nPgo8L3N2Zz4=;" parent="2U8j9AMNokQtlAU-nvTm-28" vertex="1">
          <mxGeometry x="20" y="7" width="21" height="19.73" as="geometry" />
        </mxCell>
        <mxCell id="NlKDrDCATsBkYaBcqIYO-33" value="" style="rounded=0;whiteSpace=wrap;html=1;fontFamily=IBM Plex Sans;fontSource=fonts%2FIBMPlexSans-Regular.woff;fontSize=14;spacingBottom=-28;spacingTop=0;labelPosition=-100;verticalLabelPosition=top;align=center;verticalAlign=bottom;spacingLeft=9;spacing=0;expand=0;recursiveResize=0;spacingRight=0;container=1;collapsible=0;strokeColor=#82b366;fillColor=#d5e8d4;" parent="2U8j9AMNokQtlAU-nvTm-28" vertex="1">
          <mxGeometry x="51" y="38.5" width="599" height="421.5" as="geometry">
            <mxRectangle width="670" as="alternateBounds" />
          </mxGeometry>
        </mxCell>
        <mxCell id="NlKDrDCATsBkYaBcqIYO-34" value="" style="rounded=0;whiteSpace=wrap;html=1;strokeColor=none;fillColor=#878d96;" parent="NlKDrDCATsBkYaBcqIYO-33" vertex="1">
          <mxGeometry width="7" height="37" as="geometry" />
        </mxCell>
        <mxCell id="NlKDrDCATsBkYaBcqIYO-35" value="Region" style="text;html=1;strokeColor=none;fillColor=none;align=left;verticalAlign=middle;whiteSpace=wrap;rounded=0;fontFamily=IBM Plex Sans;fontSource=fonts%2FIBMPlexSans-Regular.woff;fontSize=14;" parent="NlKDrDCATsBkYaBcqIYO-33" vertex="1">
          <mxGeometry x="51" y="8" width="168" height="20" as="geometry" />
        </mxCell>
        <mxCell id="NlKDrDCATsBkYaBcqIYO-36" style="edgeStyle=orthogonalEdgeStyle;rounded=0;orthogonalLoop=1;jettySize=auto;html=1;exitX=0;exitY=0.5;exitDx=0;exitDy=0;entryX=1.009;entryY=0.22;entryDx=0;entryDy=0;entryPerimeter=0;fontFamily=IBM Plex Sans;fontSource=fonts%2FIBMPlexSans-Regular.woff;fontSize=14;startArrow=oval;startFill=1;strokeColor=#198038;" parent="NlKDrDCATsBkYaBcqIYO-33" edge="1">
          <mxGeometry relative="1" as="geometry" />
        </mxCell>
        <mxCell id="NlKDrDCATsBkYaBcqIYO-37" value="" style="shape=image;aspect=fixed;image=data:image/svg+xml,PD94bWwgdmVyc2lvbj0iMS4wIiBlbmNvZGluZz0iVVRGLTgiPz4KPHN2ZyB3aWR0aD0iMjNweCIgaGVpZ2h0PSIyOHB4IiB2aWV3Qm94PSIwIDAgMjMgMjgiIHZlcnNpb249IjEuMSIgeG1sbnM9Imh0dHA6Ly93d3cudzMub3JnLzIwMDAvc3ZnIiB4bWxuczp4bGluaz0iaHR0cDovL3d3dy53My5vcmcvMTk5OS94bGluayI+CiAgICA8IS0tIEdlbmVyYXRvcjogU2tldGNoIDUzICg3MjUyMCkgLSBodHRwczovL3NrZXRjaGFwcC5jb20gLS0+CiAgICA8dGl0bGU+UmVnaW9uIEJsYWNrPC90aXRsZT4KICAgIDxkZXNjPkNyZWF0ZWQgd2l0aCBTa2V0Y2guPC9kZXNjPgogICAgPGcgaWQ9IlBhZ2UtMSIgc3Ryb2tlPSJub25lIiBzdHJva2Utd2lkdGg9IjEiIGZpbGw9Im5vbmUiIGZpbGwtcnVsZT0iZXZlbm9kZCI+CiAgICAgICAgPGcgaWQ9IlJlZ2lvbi1CbGFjayIgdHJhbnNmb3JtPSJ0cmFuc2xhdGUoMC4xMjUwMDAsIDAuMDAwMDAwKSIgZmlsbD0iIzAwMDAwMCI+CiAgICAgICAgICAgIDxwYXRoIGQ9Ik0xMS4wMDAyLDggQzkuMzQzMiw4IDguMDAwMiw5LjM0MyA4LjAwMDIsMTEgQzguMDAwMiwxMi42NTcgOS4zNDMyLDE0IDExLjAwMDIsMTQgQzEyLjY1NzIsMTQgMTQuMDAwMiwxMi42NTcgMTQuMDAwMiwxMSBDMTMuOTk4Miw5LjM0NCAxMi42NTYyLDguMDAyIDExLjAwMDIsOCBNMTEuMDAwMiwxNiBDOC4yMzgyLDE2IDYuMDAwMiwxMy43NjEgNi4wMDAyLDExIEM2LjAwMDIsOC4yMzkgOC4yMzgyLDYgMTEuMDAwMiw2IEMxMy43NjEyLDYgMTYuMDAwMiw4LjIzOSAxNi4wMDAyLDExIEMxNS45OTcyLDEzLjc2IDEzLjc2MDIsMTUuOTk3IDExLjAwMDIsMTYiIGlkPSJGaWxsLTEiPjwvcGF0aD4KICAgICAgICAgICAgPGcgaWQ9Ikdyb3VwLTUiPgogICAgICAgICAgICAgICAgPHBhdGggZD0iTTMuODEyNywxNi4zOTUgQzMuODEzNywxNi4zOTUgNC4wNDU3LDE2LjcwMyA0LjA5ODcsMTYuNzcgTDEwLjk5OTcsMjQuOTA4IEwxNy45MTA3LDE2Ljc1OCBDMTcuOTU0NywxNi43MDMgMTguMTg4NywxNi4zOTMgMTguMTg4NywxNi4zOTIgQzE5LjM2NjcsMTQuODQxIDIwLjAwMTcsMTIuOTQ3IDE5Ljk5OTcsMTEgQzE5Ljk5OTcsNi4wMjkgMTUuOTcwNywyIDEwLjk5OTcsMiBDNi4wMjk3LDIgMi4wMDA3LDYuMDI5IDIuMDAwNywxMSBDMS45OTc3LDEyLjk0OCAyLjYzNDcsMTQuODQzIDMuODEyNywxNi4zOTUgTDMuODEyNywxNi4zOTUgWiBNMTAuOTk5NywyOCBMMi41NjQ3LDE4LjA1MSBDMi41MTY3LDE3Ljk5NCAyLjIxNjcsMTcuNiAyLjIxNjcsMTcuNiBDMC43NzQ3LDE1LjcwMiAtMC4wMDMzLDEzLjM4MyAtMC4wMDAzLDExIEMtMC4wMDAzLDQuOTI1IDQuOTI0NywwIDEwLjk5OTcsMCBDMTcuMDc1NywwIDIxLjk5OTcsNC45MjUgMjEuOTk5NywxMSBDMjIuMDAyNywxMy4zODIgMjEuMjI1NywxNS43IDE5Ljc4NTcsMTcuNTk3IEwxOS43ODM3LDE3LjYgQzE5Ljc4MzcsMTcuNiAxOS40ODM3LDE3Ljk5NCAxOS40Mzg3LDE4LjA0NyBMMTAuOTk5NywyOCBaIiBpZD0iRmlsbC0zIj48L3BhdGg+CiAgICAgICAgICAgIDwvZz4KICAgICAgICA8L2c+CiAgICA8L2c+Cjwvc3ZnPg==;" parent="NlKDrDCATsBkYaBcqIYO-33" vertex="1">
          <mxGeometry x="22.66" y="6" width="17" height="20.69" as="geometry" />
        </mxCell>
        <mxCell id="NlKDrDCATsBkYaBcqIYO-9" value="code-engine" style="" parent="0" />
        <mxCell id="NlKDrDCATsBkYaBcqIYO-38" value="" style="rounded=0;whiteSpace=wrap;html=1;fontFamily=IBM Plex Sans;fontSource=fonts%2FIBMPlexSans-Regular.woff;fontSize=14;spacingBottom=-28;spacingTop=0;labelPosition=-100;verticalLabelPosition=top;align=center;verticalAlign=bottom;spacingLeft=9;spacing=0;expand=0;recursiveResize=0;spacingRight=0;container=1;collapsible=0;strokeColor=#6c8ebf;fillColor=#dae8fc;" parent="NlKDrDCATsBkYaBcqIYO-9" vertex="1">
          <mxGeometry x="100" y="130" width="450" height="330" as="geometry">
            <mxRectangle width="670" as="alternateBounds" />
          </mxGeometry>
        </mxCell>
        <mxCell id="NlKDrDCATsBkYaBcqIYO-39" value="" style="rounded=0;whiteSpace=wrap;html=1;strokeColor=none;fillColor=#1192E8;" parent="NlKDrDCATsBkYaBcqIYO-38" vertex="1">
          <mxGeometry width="7" height="37" as="geometry" />
        </mxCell>
        <mxCell id="NlKDrDCATsBkYaBcqIYO-40" value="Code Engine Project" style="text;html=1;strokeColor=none;fillColor=none;align=left;verticalAlign=middle;whiteSpace=wrap;rounded=0;fontFamily=IBM Plex Sans;fontSource=fonts%2FIBMPlexSans-Regular.woff;fontSize=14;" parent="NlKDrDCATsBkYaBcqIYO-38" vertex="1">
          <mxGeometry x="51" y="8" width="163" height="20" as="geometry" />
        </mxCell>
        <mxCell id="NlKDrDCATsBkYaBcqIYO-41" value="" style="shape=image;aspect=fixed;image=data:image/svg+xml,PD94bWwgdmVyc2lvbj0iMS4wIiBlbmNvZGluZz0iVVRGLTgiPz4KPHN2ZyB3aWR0aD0iMzNweCIgaGVpZ2h0PSIyNHB4IiB2aWV3Qm94PSIwIDAgMzMgMjQiIHZlcnNpb249IjEuMSIgeG1sbnM9Imh0dHA6Ly93d3cudzMub3JnLzIwMDAvc3ZnIiB4bWxuczp4bGluaz0iaHR0cDovL3d3dy53My5vcmcvMTk5OS94bGluayI+CiAgICA8IS0tIEdlbmVyYXRvcjogU2tldGNoIDUzICg3MjUyMCkgLSBodHRwczovL3NrZXRjaGFwcC5jb20gLS0+CiAgICA8dGl0bGU+Q2xvdWQtIEJsYWNrPC90aXRsZT4KICAgIDxkZXNjPkNyZWF0ZWQgd2l0aCBTa2V0Y2guPC9kZXNjPgogICAgPGRlZnM+CiAgICAgICAgPHBvbHlnb24gaWQ9InBhdGgtMSIgcG9pbnRzPSIwIDkuNjQ4MjU3NzNlLTA1IDMxLjk2ODkxODEgOS42NDgyNTc3M2UtMDUgMzEuOTY4OTE4MSAyMyAwIDIzIj48L3BvbHlnb24+CiAgICA8L2RlZnM+CiAgICA8ZyBpZD0iUGFnZS0xIiBzdHJva2U9Im5vbmUiIHN0cm9rZS13aWR0aD0iMSIgZmlsbD0ibm9uZSIgZmlsbC1ydWxlPSJldmVub2RkIj4KICAgICAgICA8ZyBpZD0iQ2xvdWQtLUJsYWNrIiB0cmFuc2Zvcm09InRyYW5zbGF0ZSgwLjY4NzUwMCwgMC41MDAwMDApIj4KICAgICAgICAgICAgPG1hc2sgaWQ9Im1hc2stMiIgZmlsbD0id2hpdGUiPgogICAgICAgICAgICAgICAgPHVzZSB4bGluazpocmVmPSIjcGF0aC0xIj48L3VzZT4KICAgICAgICAgICAgPC9tYXNrPgogICAgICAgICAgICA8ZyBpZD0iQ2xpcC0yIj48L2c+CiAgICAgICAgICAgIDxwYXRoIGQ9Ik0xNS45OTQ5LDAuMDAwMSBDMTEuMTkzOSwtMC4wMDM5IDcuMDY3OSwzLjQwNDEgNi4xNjQ5LDguMTIwMSBDMi4wODk5LDguODU4MSAtMC42MTYxLDEyLjc2MDEgMC4xMjA5LDE2LjgzNjEgQzAuNzY1OSwyMC4zOTkxIDMuODYzOSwyMi45OTIxIDcuNDg0OSwyMy4wMDAxIEwyNC40ODQ5LDIzLjAwMDEgQzI4LjYyNzksMjIuOTkxMSAzMS45Nzc5LDE5LjYyNjEgMzEuOTY4OSwxNS40ODQxIEMzMS45NjA5LDExLjg2MzEgMjkuMzY3OSw4Ljc2NTEgMjUuODA1OSw4LjEyMDEgQzI1LjAzNDksNC4wOTcxIDIxLjg4ODksMC45NTExIDE3Ljg2NDksMC4xODAxIEMxNy4yNDg5LDAuMDYzMSAxNi42MjI5LDAuMDAyMSAxNS45OTQ5LDAuMDAwMSBNMTUuOTk0OSwyLjAwMDEgTDE1Ljk5NDksMi4wMDAxIEMxNi41MDE5LDIuMDAwMSAxNy4wMDc5LDIuMDUwMSAxNy41MDQ5LDIuMTUwMSBDMjAuNzE5OSwyLjc2NjEgMjMuMjMzOSw1LjI3NzEgMjMuODU0OSw4LjQ5MDEgTDI0LjExNDksOS44NDAxIEwyNS40NjU5LDEwLjA4MDEgQzI4LjQ1ODksMTAuNTk1MSAzMC40Njg5LDEzLjQzOTEgMjkuOTUyOSwxNi40MzMxIEMyOS40OTQ5LDE5LjA5NzEgMjcuMTY4OSwyMS4wMzMxIDI0LjQ2NTksMjEuMDAwMSBMNy40OTQ5LDIxLjAwMDEgQzQuNDU3OSwyMS4wMzcxIDEuOTY1OSwxOC42MDUxIDEuOTI3OSwxNS41NjgxIEMxLjg5MzksMTIuODY1MSAzLjgzMDksMTAuNTM4MSA2LjQ5NDksMTAuMDgwMSBMNy44MzQ5LDkuODQwMSBMOC4wOTU5LDguNDkwMSBDOC44MjE5LDQuNzA3MSAxMi4xNDE5LDEuOTc5MSAxNS45OTQ5LDIuMDAwMSIgaWQ9IkZpbGwtMSIgZmlsbD0iIzAwMDAwMCIgbWFzaz0idXJsKCNtYXNrLTIpIj48L3BhdGg+CiAgICAgICAgPC9nPgogICAgPC9nPgo8L3N2Zz4=;" parent="NlKDrDCATsBkYaBcqIYO-38" vertex="1">
          <mxGeometry x="18" y="6.8400000000001455" width="27" height="19.62" as="geometry" />
        </mxCell>
        <mxCell id="NlKDrDCATsBkYaBcqIYO-42" value="" style="rounded=0;whiteSpace=wrap;html=1;fontFamily=IBM Plex Sans;fontSource=fonts%2FIBMPlexSans-Regular.woff;fontSize=14;spacingBottom=-28;spacingTop=0;labelPosition=-100;verticalLabelPosition=top;align=center;verticalAlign=bottom;spacingLeft=9;spacing=0;expand=0;recursiveResize=0;spacingRight=0;container=1;collapsible=0;strokeColor=#666666;fillColor=#f5f5f5;fontColor=#333333;" parent="NlKDrDCATsBkYaBcqIYO-38" vertex="1">
          <mxGeometry x="30" y="50" width="380" height="240" as="geometry">
            <mxRectangle width="670" as="alternateBounds" />
          </mxGeometry>
        </mxCell>
        <mxCell id="NlKDrDCATsBkYaBcqIYO-43" value="" style="rounded=0;whiteSpace=wrap;html=1;strokeColor=none;fillColor=#000000;" parent="NlKDrDCATsBkYaBcqIYO-42" vertex="1">
          <mxGeometry width="7" height="37" as="geometry" />
        </mxCell>
        <mxCell id="NlKDrDCATsBkYaBcqIYO-44" value="Application" style="text;html=1;strokeColor=none;fillColor=none;align=left;verticalAlign=middle;whiteSpace=wrap;rounded=0;fontFamily=IBM Plex Sans;fontSource=fonts%2FIBMPlexSans-Regular.woff;fontSize=14;" parent="NlKDrDCATsBkYaBcqIYO-42" vertex="1">
          <mxGeometry x="51" y="8" width="168" height="20" as="geometry" />
        </mxCell>
        <mxCell id="NlKDrDCATsBkYaBcqIYO-45" style="edgeStyle=orthogonalEdgeStyle;rounded=0;orthogonalLoop=1;jettySize=auto;html=1;exitX=0;exitY=0.5;exitDx=0;exitDy=0;entryX=1.009;entryY=0.22;entryDx=0;entryDy=0;entryPerimeter=0;fontFamily=IBM Plex Sans;fontSource=fonts%2FIBMPlexSans-Regular.woff;fontSize=14;startArrow=oval;startFill=1;strokeColor=#198038;" parent="NlKDrDCATsBkYaBcqIYO-42" edge="1">
          <mxGeometry relative="1" as="geometry" />
        </mxCell>
        <mxCell id="NlKDrDCATsBkYaBcqIYO-46" value="" style="shape=image;aspect=fixed;image=data:image/svg+xml,PD94bWwgdmVyc2lvbj0iMS4wIiBlbmNvZGluZz0idXRmLTgiPz4KPCEtLSBHZW5lcmF0b3I6IEFkb2JlIElsbHVzdHJhdG9yIDI1LjQuMSwgU1ZHIEV4cG9ydCBQbHVnLUluIC4gU1ZHIFZlcnNpb246IDYuMDAgQnVpbGQgMCkgIC0tPgo8c3ZnIHZlcnNpb249IjEuMSIgaWQ9Imljb24iIHhtbG5zPSJodHRwOi8vd3d3LnczLm9yZy8yMDAwL3N2ZyIgeG1sbnM6eGxpbms9Imh0dHA6Ly93d3cudzMub3JnLzE5OTkveGxpbmsiIHg9IjBweCIgeT0iMHB4IgoJIHdpZHRoPSIzMnB4IiBoZWlnaHQ9IjMycHgiIHZpZXdCb3g9IjAgMCAzMiAzMiIgc3R5bGU9ImVuYWJsZS1iYWNrZ3JvdW5kOm5ldyAwIDAgMzIgMzI7IiB4bWw6c3BhY2U9InByZXNlcnZlIj4KPHN0eWxlIHR5cGU9InRleHQvY3NzIj4KCS5zdDB7ZmlsbDpub25lO30KPC9zdHlsZT4KPHBhdGggZD0iTTMwLDI0di0yaC0yLjEwMWMtMC4xMy0wLjYzNy0wLjM4NC0xLjIyOS0wLjczMi0xLjc1M2wxLjQ5LTEuNDlsLTEuNDE0LTEuNDE0bC0xLjQ5LDEuNDkKCWMtMC41MjQtMC4zNDgtMS4xMTYtMC42MDItMS43NTMtMC43MzJWMTZoLTJ2Mi4xMDFjLTAuNjM3LDAuMTMtMS4yMjksMC4zODQtMS43NTMsMC43MzJsLTEuNDktMS40OWwtMS40MTQsMS40MTRsMS40OSwxLjQ5CgljLTAuMzQ4LDAuNTI0LTAuNjAyLDEuMTE2LTAuNzMyLDEuNzUzSDE2djJoMi4xMDFjMC4xMywwLjYzNywwLjM4NCwxLjIyOSwwLjczMiwxLjc1M2wtMS40OSwxLjQ5bDEuNDE0LDEuNDE0bDEuNDktMS40OQoJYzAuNTI0LDAuMzQ4LDEuMTE2LDAuNjAyLDEuNzUzLDAuNzMyVjMwaDJ2LTIuMTAxYzAuNjM3LTAuMTMsMS4yMjktMC4zODQsMS43NTMtMC43MzJsMS40OSwxLjQ5bDEuNDE0LTEuNDE0bC0xLjQ5LTEuNDkKCWMwLjM0OC0wLjUyNCwwLjYwMi0xLjExNiwwLjczMi0xLjc1M0gzMHogTTIzLDI2Yy0xLjY1NCwwLTMtMS4zNDYtMy0zczEuMzQ2LTMsMy0zczMsMS4zNDYsMywzUzI0LjY1NCwyNiwyMywyNnoiLz4KPHJlY3QgeD0iMTIiIHk9IjYiIHdpZHRoPSI0IiBoZWlnaHQ9IjIiLz4KPHBhdGggZD0iTTYsMjhWNGgxNnY5aDJWNGMwLTEuMTAzLTAuODk3LTItMi0ySDZDNC44OTcsMiw0LDIuODk3LDQsNHYyNGMwLDEuMTAzLDAuODk3LDIsMiwyaDh2LTJINnoiLz4KPHJlY3QgaWQ9Il94M0NfVHJhbnNwYXJlbnRfUmVjdGFuZ2xlX3gzRV9fNTg5XyIgY2xhc3M9InN0MCIgd2lkdGg9IjMyIiBoZWlnaHQ9IjMyIi8+Cjwvc3ZnPgo=;" parent="NlKDrDCATsBkYaBcqIYO-42" vertex="1">
          <mxGeometry x="19" y="5" width="25" height="25" as="geometry" />
        </mxCell>
        <mxCell id="NlKDrDCATsBkYaBcqIYO-47" value="" style="rounded=0;whiteSpace=wrap;html=1;fontFamily=IBM Plex Sans;fontSource=fonts%2FIBMPlexSans-Regular.woff;fontSize=14;fillColor=none;spacingBottom=-28;spacingTop=0;labelPosition=-100;verticalLabelPosition=top;align=center;verticalAlign=bottom;spacingLeft=9;spacing=0;expand=0;recursiveResize=0;spacingRight=0;container=1;collapsible=0;strokeColor=#FA4D56;strokeWidth=1;" parent="NlKDrDCATsBkYaBcqIYO-42" vertex="1">
          <mxGeometry x="210" y="180" width="151" height="40" as="geometry">
            <mxRectangle width="670" as="alternateBounds" />
          </mxGeometry>
        </mxCell>
        <mxCell id="NlKDrDCATsBkYaBcqIYO-48" value="" style="rounded=0;whiteSpace=wrap;html=1;strokeColor=none;fillColor=#FA4D56;fontFamily=IBM Plex Sans;fontSource=fonts%2FIBMPlexSans-Regular.woff;fontSize=14;" parent="NlKDrDCATsBkYaBcqIYO-47" vertex="1">
          <mxGeometry width="7" height="37" as="geometry" />
        </mxCell>
        <mxCell id="NlKDrDCATsBkYaBcqIYO-49" value="Secrets" style="text;html=1;strokeColor=none;fillColor=none;align=left;verticalAlign=middle;whiteSpace=wrap;rounded=0;fontFamily=IBM Plex Sans;fontSource=fonts%2FIBMPlexSans-Regular.woff;fontSize=14;" parent="NlKDrDCATsBkYaBcqIYO-47" vertex="1">
          <mxGeometry x="50.33" y="8" width="59.67" height="22" as="geometry" />
        </mxCell>
        <mxCell id="NlKDrDCATsBkYaBcqIYO-50" value="" style="shape=image;aspect=fixed;image=data:image/svg+xml,PHN2ZyBpZD0iaWNvbiIgeG1sbnM9Imh0dHA6Ly93d3cudzMub3JnLzIwMDAvc3ZnIiB3aWR0aD0iMzIiIGhlaWdodD0iMzIiIHZpZXdCb3g9IjAgMCAzMiAzMiI+PGRlZnM+PHN0eWxlPi5jbHMtMXtmaWxsOm5vbmU7fTwvc3R5bGU+PC9kZWZzPjx0aXRsZT5jcmVkZW50aWFsczwvdGl0bGU+PHBhdGggZD0iTTE2LDIyYTQsNCwwLDEsMC00LTRBNCw0LDAsMCwwLDE2LDIyWm0wLTZhMiwyLDAsMSwxLTIsMkEyLDIsMCwwLDEsMTYsMTZaIi8+PHJlY3QgeD0iMTQiIHk9IjYiIHdpZHRoPSI0IiBoZWlnaHQ9IjIiLz48cGF0aCBkPSJNMjQsMkg4QTIuMDAyLDIuMDAyLDAsMCwwLDYsNFYyOGEyLjAwMjMsMi4wMDIzLDAsMCwwLDIsMkgyNGEyLjAwMjcsMi4wMDI3LDAsMCwwLDItMlY0QTIuMDAyMywyLjAwMjMsMCwwLDAsMjQsMlpNMjAsMjhIMTJWMjZhMSwxLDAsMCwxLDEtMWg2YTEsMSwwLDAsMSwxLDFabTIsMFYyNmEzLDMsMCwwLDAtMy0zSDEzYTMsMywwLDAsMC0zLDN2Mkg4VjRIMjRWMjhaIi8+PHJlY3QgaWQ9Il9UcmFuc3BhcmVudF9SZWN0YW5nbGVfIiBkYXRhLW5hbWU9IiZsdDtUcmFuc3BhcmVudCBSZWN0YW5nbGUmZ3Q7IiBjbGFzcz0iY2xzLTEiIHdpZHRoPSIzMiIgaGVpZ2h0PSIzMiIvPjwvc3ZnPg==;" parent="NlKDrDCATsBkYaBcqIYO-47" vertex="1">
          <mxGeometry x="20" y="6" width="25" height="25" as="geometry" />
        </mxCell>
        <mxCell id="NlKDrDCATsBkYaBcqIYO-56" value="" style="rounded=0;whiteSpace=wrap;html=1;fontFamily=IBM Plex Sans;fontSource=fonts%2FIBMPlexSans-Regular.woff;fontSize=14;fillColor=none;spacingBottom=-28;spacingTop=0;labelPosition=-100;verticalLabelPosition=top;align=center;verticalAlign=bottom;spacingLeft=9;spacing=0;expand=0;recursiveResize=0;spacingRight=0;container=1;collapsible=0;strokeColor=#FA4D56;strokeWidth=1;" parent="NlKDrDCATsBkYaBcqIYO-42" vertex="1">
          <mxGeometry x="19" y="180" width="151" height="40" as="geometry">
            <mxRectangle width="670" as="alternateBounds" />
          </mxGeometry>
        </mxCell>
        <mxCell id="NlKDrDCATsBkYaBcqIYO-57" value="" style="rounded=0;whiteSpace=wrap;html=1;strokeColor=none;fillColor=#FA4D56;" parent="NlKDrDCATsBkYaBcqIYO-56" vertex="1">
          <mxGeometry width="7" height="37" as="geometry" />
        </mxCell>
        <mxCell id="NlKDrDCATsBkYaBcqIYO-58" value="Configmap" style="text;html=1;strokeColor=none;fillColor=none;align=left;verticalAlign=middle;whiteSpace=wrap;rounded=0;fontFamily=IBM Plex Sans;fontSource=fonts%2FIBMPlexSans-Regular.woff;fontSize=14;" parent="NlKDrDCATsBkYaBcqIYO-56" vertex="1">
          <mxGeometry x="50.33" y="8" width="79.67" height="20" as="geometry" />
        </mxCell>
        <mxCell id="NlKDrDCATsBkYaBcqIYO-59" value="" style="shape=image;aspect=fixed;image=data:image/svg+xml,PD94bWwgdmVyc2lvbj0iMS4wIiBlbmNvZGluZz0iVVRGLTgiPz4KPHN2ZyB3aWR0aD0iMjlweCIgaGVpZ2h0PSIyOHB4IiB2aWV3Qm94PSIwIDAgMjkgMjgiIHZlcnNpb249IjEuMSIgeG1sbnM9Imh0dHA6Ly93d3cudzMub3JnLzIwMDAvc3ZnIiB4bWxuczp4bGluaz0iaHR0cDovL3d3dy53My5vcmcvMTk5OS94bGluayI+CiAgICA8IS0tIEdlbmVyYXRvcjogU2tldGNoIDUzICg3MjUyMCkgLSBodHRwczovL3NrZXRjaGFwcC5jb20gLS0+CiAgICA8dGl0bGU+UmVzb3VyY2UgR3JvdXAgQmxhY2s8L3RpdGxlPgogICAgPGRlc2M+Q3JlYXRlZCB3aXRoIFNrZXRjaC48L2Rlc2M+CiAgICA8ZGVmcz4KICAgICAgICA8cG9seWdvbiBpZD0icGF0aC0xIiBwb2ludHM9IjAgMCAyOCAwIDI4IDI4IDAgMjgiPjwvcG9seWdvbj4KICAgIDwvZGVmcz4KICAgIDxnIGlkPSJQYWdlLTEiIHN0cm9rZT0ibm9uZSIgc3Ryb2tlLXdpZHRoPSIxIiBmaWxsPSJub25lIiBmaWxsLXJ1bGU9ImV2ZW5vZGQiPgogICAgICAgIDxnIGlkPSJSZXNvdXJjZS1Hcm91cC1CbGFjayIgdHJhbnNmb3JtPSJ0cmFuc2xhdGUoMC4zNzUwMDAsIDAuMDAwMDAwKSI+CiAgICAgICAgICAgIDxtYXNrIGlkPSJtYXNrLTIiIGZpbGw9IndoaXRlIj4KICAgICAgICAgICAgICAgIDx1c2UgeGxpbms6aHJlZj0iI3BhdGgtMSI+PC91c2U+CiAgICAgICAgICAgIDwvbWFzaz4KICAgICAgICAgICAgPGcgaWQ9IkNsaXAtMiI+PC9nPgogICAgICAgICAgICA8cGF0aCBkPSJNOCwyMCBMMjAsMjAgTDIwLDggTDgsOCBMOCwyMCBaIE0yMCwyMiBMOCwyMiBDNi44OTYsMjEuOTk5IDYuMDAxLDIxLjEwNCA2LDIwIEw2LDggQzYuMDAxLDYuODk2IDYuODk2LDYuMDAxIDgsNiBMMjAsNiBDMjEuMTA0LDYuMDAxIDIxLjk5OSw2Ljg5NiAyMiw4IEwyMiwyMCBDMjEuOTk5LDIxLjEwNCAyMS4xMDQsMjEuOTk5IDIwLDIyIEwyMCwyMiBaIiBpZD0iRmlsbC0xIiBmaWxsPSIjMDAwMDAwIiBtYXNrPSJ1cmwoI21hc2stMikiPjwvcGF0aD4KICAgICAgICAgICAgPHBhdGggZD0iTTUuOTk5OCwyOCBMMS45OTk4LDI4IEMwLjg5NTgsMjcuOTk5IDAuMDAwOCwyNy4xMDQgLTAuMDAwMiwyNiBMLTAuMDAwMiwyIEMwLjAwMDgsMC44OTYgMC44OTU4LDAuMDAxIDEuOTk5OCwwIEw1Ljk5OTgsMCBMNS45OTk4LDIgTDEuOTk5OCwyIEwxLjk5OTgsMjYgTDUuOTk5OCwyNiBMNS45OTk4LDI4IFoiIGlkPSJGaWxsLTMiIGZpbGw9IiMwMDAwMDAiIG1hc2s9InVybCgjbWFzay0yKSI+PC9wYXRoPgogICAgICAgICAgICA8cGF0aCBkPSJNMjYuMDAwMywyOCBMMjIuMDAwMywyOCBMMjIuMDAwMywyNiBMMjYuMDAwMywyNiBMMjYuMDAwMywyIEwyMi4wMDAzLDIgTDIyLjAwMDMsMCBMMjYuMDAwMywwIEMyNy4xMDQzLDAuMDAxIDI3Ljk5OTMsMC44OTYgMjguMDAwMywyIEwyOC4wMDAzLDI2IEMyNy45OTkzLDI3LjEwNCAyNy4xMDQzLDI3Ljk5OSAyNi4wMDAzLDI4IiBpZD0iRmlsbC00IiBmaWxsPSIjMDAwMDAwIiBtYXNrPSJ1cmwoI21hc2stMikiPjwvcGF0aD4KICAgICAgICA8L2c+CiAgICA8L2c+Cjwvc3ZnPg==;" parent="NlKDrDCATsBkYaBcqIYO-56" vertex="1">
          <mxGeometry x="20" y="8.840000000000055" width="20" height="19.31" as="geometry" />
        </mxCell>
        <mxCell id="NlKDrDCATsBkYaBcqIYO-60" value="request-baskets" style="outlineConnect=0;dashed=0;verticalLabelPosition=bottom;verticalAlign=top;align=center;html=1;shape=mxgraph.aws3.android;fillColor=#FFD44F;gradientColor=none;" parent="NlKDrDCATsBkYaBcqIYO-42" vertex="1">
          <mxGeometry x="153.25" y="37" width="73.5" height="84" as="geometry" />
        </mxCell>
        <mxCell id="NlKDrDCATsBkYaBcqIYO-61" value="" style="rounded=0;whiteSpace=wrap;html=1;fontFamily=IBM Plex Sans;fontSource=fonts%2FIBMPlexSans-Regular.woff;fontSize=14;spacingBottom=-28;spacingTop=0;labelPosition=-100;verticalLabelPosition=top;align=center;verticalAlign=bottom;spacingLeft=9;spacing=0;expand=0;recursiveResize=0;spacingRight=0;container=1;collapsible=0;strokeColor=#d6b656;fillColor=#fff2cc;" parent="NlKDrDCATsBkYaBcqIYO-9" vertex="1">
          <mxGeometry x="200" y="-230" width="240" height="152" as="geometry">
            <mxRectangle width="670" as="alternateBounds" />
          </mxGeometry>
        </mxCell>
        <mxCell id="NlKDrDCATsBkYaBcqIYO-62" value="" style="rounded=0;whiteSpace=wrap;html=1;strokeColor=none;fillColor=#1192E8;" parent="NlKDrDCATsBkYaBcqIYO-61" vertex="1">
          <mxGeometry width="7" height="37" as="geometry" />
        </mxCell>
        <mxCell id="NlKDrDCATsBkYaBcqIYO-63" value="Internet" style="text;html=1;strokeColor=none;fillColor=none;align=left;verticalAlign=middle;whiteSpace=wrap;rounded=0;fontFamily=IBM Plex Sans;fontSource=fonts%2FIBMPlexSans-Regular.woff;fontSize=14;" parent="NlKDrDCATsBkYaBcqIYO-61" vertex="1">
          <mxGeometry x="51" y="8" width="163" height="20" as="geometry" />
        </mxCell>
        <mxCell id="NlKDrDCATsBkYaBcqIYO-64" value="" style="shape=image;aspect=fixed;image=data:image/svg+xml,PD94bWwgdmVyc2lvbj0iMS4wIiBlbmNvZGluZz0iVVRGLTgiPz4KPHN2ZyB3aWR0aD0iMzNweCIgaGVpZ2h0PSIyNnB4IiB2aWV3Qm94PSIwIDAgMzMgMjYiIHZlcnNpb249IjEuMSIgeG1sbnM9Imh0dHA6Ly93d3cudzMub3JnLzIwMDAvc3ZnIiB4bWxuczp4bGluaz0iaHR0cDovL3d3dy53My5vcmcvMTk5OS94bGluayI+CiAgICA8IS0tIEdlbmVyYXRvcjogU2tldGNoIDUzICg3MjUyMCkgLSBodHRwczovL3NrZXRjaGFwcC5jb20gLS0+CiAgICA8dGl0bGU+Q2xvdWQgU2VydmljZXMgQmxhY2s8L3RpdGxlPgogICAgPGRlc2M+Q3JlYXRlZCB3aXRoIFNrZXRjaC48L2Rlc2M+CiAgICA8ZyBpZD0iUGFnZS0xIiBzdHJva2U9Im5vbmUiIHN0cm9rZS13aWR0aD0iMSIgZmlsbD0ibm9uZSIgZmlsbC1ydWxlPSJldmVub2RkIj4KICAgICAgICA8ZyBpZD0iQ2xvdWQtU2VydmljZXMtQmxhY2siIHRyYW5zZm9ybT0idHJhbnNsYXRlKDAuMDYyNTAwLCAtMS4wMDAwMDApIiBmaWxsPSIjMDAwMDAwIj4KICAgICAgICAgICAgPGcgaWQ9Ikdyb3VwLTMiIHRyYW5zZm9ybT0idHJhbnNsYXRlKDAuMDAwMDAwLCAwLjAwMjAwMCkiPgogICAgICAgICAgICAgICAgPHBhdGggZD0iTTI1LjgyMzEsOS4xMjQgQzI0Ljc4NzEsMy43IDE5LjU1MTEsMC4xNDIgMTQuMTI2MSwxLjE3NyBDMTAuMDk4MSwxLjk0NiA2Ljk0ODEsNS4wOTYgNi4xNzkxLDkuMTI0IEMwLjA5MjEsMTAuMjExIC0yLjk1NzksMTguMzYzIDMuOTY0MSwyMy42MzIgQzQuMjg1MSwyMy44NzcgNC42ODkxLDI0IDUuMDkzMSwyNCBMOC4wMDExLDI0IEw4LjAwMTEsMjIgTDUuNDQ4MSwyMiBDNS4xMDQxLDIyIDQuNzYyMSwyMS44NzcgNC41MTExLDIxLjY0MiBDLTAuMzUzOSwxNy4wODYgMi41ODYxLDExLjMzIDcuMTI0MSwxMS4wMiBMNy45NjExLDEwLjk2MyBMOC4zNTYxLDcuMjk4IEM4LjQwNzEsNi44MzIgOC42MTMxLDYuMzg2IDguOTU3MSw2LjA2NyBDMTUuNjAxMSwtMC4wOTQgMjMuMjc2MSwzLjkzNyAyMy45NTIxLDEwLjEzIEwyNC4wNDIxLDEwLjk2MyBMMjYuOTI2MSwxMS4xNiBDMjcuMjY5MSwxMS4xODQgMjcuNjAxMSwxMS4zMyAyNy44MzUxLDExLjU4MiBDMzIuMzc5MSwxNi40NiAyOS4wNTAxLDIyLjAwMyAyNC41MDExLDIyIEwyNC4wMDExLDIyIEwyNC4wMDExLDI0IEwyNy4yMTUxLDI0IEMyNy42NjExLDI0IDI4LjEwMzEsMjMuODQ4IDI4LjQzNzEsMjMuNTUyIEMzNC45MTQxLDE3LjgxNiAzMS42NjgxLDEwLjE2OCAyNS44MjMxLDkuMTI0IiBpZD0iRmlsbC0xIj48L3BhdGg+CiAgICAgICAgICAgIDwvZz4KICAgICAgICAgICAgPHBhdGggZD0iTTE1LjU3NCwyMi44MjU3IEMxMy45MTcsMjIuODI1NyAxMi41NzQsMjEuNDgyNyAxMi41NzQsMTkuODI1NyBDMTIuNTc0LDE4LjE2ODcgMTMuOTE3LDE2LjgyNTcgMTUuNTc0LDE2LjgyNTcgQzE3LjIzMSwxNi44MjU3IDE4LjU3NCwxOC4xNjg3IDE4LjU3NCwxOS44MjU3IEMxOC41NzIsMjEuNDgxNyAxNy4yMywyMi44MjM3IDE1LjU3NCwyMi44MjU3IEwxNS41NzQsMjIuODI1NyBaIE0yMy4wMDEsMjEuMDAxNyBMMjMuMDAxLDE5LjAwMTcgTDIwLjksMTkuMDAxNyBDMjAuNzcxLDE4LjM3NTcgMjAuNTIzLDE3Ljc4MDcgMjAuMTY4LDE3LjI0ODcgTDIxLjY1OCwxNS43NTk3IEwyMC4yNDQsMTQuMzQ1NyBMMTguNzU0LDE1LjgzNDcgQzE4LjIyMiwxNS40ODA3IDE3LjYyNywxNS4yMzE3IDE3LjAwMSwxNS4xMDI3IEwxNy4wMDEsMTMuMDAxNyBMMTUuMDAxLDEzLjAwMTcgTDE1LjAwMSwxNS4xMDI3IEMxNC4zNzUsMTUuMjMxNyAxMy43OCwxNS40ODA3IDEzLjI0OCwxNS44MzQ3IEwxMS43NTgsMTQuMzQ0NyBMMTAuMzQ1LDE1Ljc1ODcgTDExLjgzNCwxNy4yNDg3IEMxMS40OCwxNy43ODA3IDExLjIzMSwxOC4zNzU3IDExLjEwMiwxOS4wMDE3IEw5LjAwMSwxOS4wMDE3IEw5LjAwMSwyMS4wMDE3IEwxMS4xMDIsMjEuMDAxNyBDMTEuMjMxLDIxLjYyNzcgMTEuNDgsMjIuMjIyNyAxMS44MzQsMjIuNzU0NyBMMTAuMzQ0LDI0LjI0NDcgTDExLjc1OCwyNS42NTg3IEwxMy4yNDgsMjQuMTY4NyBDMTMuNzgsMjQuNTIzNyAxNC4zNzUsMjQuNzcxNyAxNS4wMDEsMjQuOTAwNyBMMTUuMDAxLDI3LjAwMTcgTDE3LjAwMSwyNy4wMDE3IEwxNy4wMDEsMjQuOTAwNyBDMTcuNjI3LDI0Ljc3MTcgMTguMjIyLDI0LjUyMzcgMTguNzU0LDI0LjE2ODcgTDIwLjI0NCwyNS42NTg3IEwyMS42NTgsMjQuMjQ0NyBMMjAuMTY4LDIyLjc1NDcgQzIwLjUyMywyMi4yMjI3IDIwLjc3MSwyMS42Mjc3IDIwLjksMjEuMDAxNyBMMjMuMDAxLDIxLjAwMTcgWiIgaWQ9IkZpbGwtNCI+PC9wYXRoPgogICAgICAgIDwvZz4KICAgIDwvZz4KPC9zdmc+;" parent="NlKDrDCATsBkYaBcqIYO-61" vertex="1">
          <mxGeometry x="20" y="6.65" width="25" height="19.71" as="geometry" />
        </mxCell>
        <mxCell id="NlKDrDCATsBkYaBcqIYO-65" value="Devices" style="shape=image;aspect=fixed;image=data:image/svg+xml,PHN2ZyBpZD0iTGF5ZXJfMSIgZGF0YS1uYW1lPSJMYXllciAxIiB4bWxucz0iaHR0cDovL3d3dy53My5vcmcvMjAwMC9zdmciIHZpZXdCb3g9IjAgMCA0OSA0OSI+PGRlZnM+PHN0eWxlPi5jbHMtMXtmaWxsOm5vbmU7fS5jbHMtMntmaWxsOiNmZmY7ZmlsbC1ydWxlOmV2ZW5vZGQ7fTwvc3R5bGU+PC9kZWZzPjxyZWN0IHg9IjAuNSIgeT0iMC41IiB3aWR0aD0iNDgiIGhlaWdodD0iNDgiIHJ4PSIyNCIvPjxyZWN0IGNsYXNzPSJjbHMtMSIgeD0iMTQuNSIgeT0iMTQuNSIgd2lkdGg9IjIwIiBoZWlnaHQ9IjIwIi8+PHBhdGggaWQ9IkZpbGwtMSIgY2xhc3M9ImNscy0yIiBkPSJNMTYuNDYsMzEuODdoNHYtOGgtNFptNCwxLjM0aC00YTEuMzQsMS4zNCwwLDAsMS0xLjM0LTEuMzR2LThhMS4zNCwxLjM0LDAsMCwxLDEuMzQtMS4zNGg0YTEuMzQsMS4zNCwwLDAsMSwxLjM0LDEuMzR2OGExLjM0LDEuMzQsMCwwLDEtMS4zNCwxLjM0WiIvPjxwYXRoIGlkPSJGaWxsLTMiIGNsYXNzPSJjbHMtMiIgZD0iTTMyLjU0LDE1Ljc5SDE3LjhhMS4zNCwxLjM0LDAsMCwwLTEuMzQsMS4zNHY0SDE3Ljh2LTRIMzIuNTR2OS4zOEgyMy4xNnYxLjM0SDI0LjV2Mi42OEgyMy4xNnYxLjM0aDZWMzAuNTNIMjUuODRWMjcuODVoNi43YTEuMzQsMS4zNCwwLDAsMCwxLjM0LTEuMzRWMTcuMTNhMS4zNCwxLjM0LDAsMCwwLTEuMzQtMS4zNCIvPjwvc3ZnPg==;fontFamily=IBM Plex Sans;fontSource=fonts%2FIBMPlexSans-Regular.woff;fontSize=14;labelPosition=center;verticalLabelPosition=bottom;align=center;verticalAlign=top;spacingTop=-7;" parent="NlKDrDCATsBkYaBcqIYO-61" vertex="1">
          <mxGeometry x="43" y="60" width="48" height="48" as="geometry" />
        </mxCell>
        <mxCell id="NlKDrDCATsBkYaBcqIYO-66" value="Users" style="shape=image;aspect=fixed;image=data:image/svg+xml,PHN2ZyBpZD0iTGF5ZXJfMSIgZGF0YS1uYW1lPSJMYXllciAxIiB4bWxucz0iaHR0cDovL3d3dy53My5vcmcvMjAwMC9zdmciIHhtbG5zOnhsaW5rPSJodHRwOi8vd3d3LnczLm9yZy8xOTk5L3hsaW5rIiB2aWV3Qm94PSIwIDAgNDkgNDkiPjxkZWZzPjxzdHlsZT4uY2xzLTF7ZmlsbDojZmZmO2ZpbGwtcnVsZTpldmVub2RkO30uY2xzLTJ7ZmlsbDpub25lO30uY2xzLTN7bWFzazp1cmwoI21hc2spO308L3N0eWxlPjxtYXNrIGlkPSJtYXNrIiB4PSIyNS44MiIgeT0iMzAuNDQiIHdpZHRoPSI3LjkyIiBoZWlnaHQ9IjMuMyIgbWFza1VuaXRzPSJ1c2VyU3BhY2VPblVzZSI+PGcgaWQ9Im1hc2stMiI+PHBvbHlnb24gaWQ9InBhdGgtMSIgY2xhc3M9ImNscy0xIiBwb2ludHM9IjI1LjgyIDMwLjQ0IDMzLjc0IDMwLjQ0IDMzLjc0IDMzLjc0IDI1LjgyIDMzLjc0IDI1LjgyIDMwLjQ0Ii8+PC9nPjwvbWFzaz48L2RlZnM+PHJlY3QgeD0iMC41IiB5PSIwLjUiIHdpZHRoPSI0OCIgaGVpZ2h0PSI0OCIgcng9IjI0Ii8+PHJlY3QgY2xhc3M9ImNscy0yIiB4PSIxNC41IiB5PSIxNC41IiB3aWR0aD0iMjAiIGhlaWdodD0iMjAiLz48cGF0aCBpZD0iRmlsbC0xIiBjbGFzcz0iY2xzLTEiIGQ9Ik0xNy45LDI3Ljh2LS42NkgxNi41OHYuNjZhNC42Miw0LjYyLDAsMCwwLDQuNjIsNC42MmgyVjMxLjFoLTJhMy4zLDMuMywwLDAsMS0zLjMtMy4zIi8+PHBhdGggaWQ9IkZpbGwtMyIgY2xhc3M9ImNscy0xIiBkPSJNMjkuNzgsMjEuMnYuNjZIMzEuMVYyMS4yYTQuNjIsNC42MiwwLDAsMC00LjYyLTQuNjJoLTJWMTcuOWgyYTMuMywzLjMsMCwwLDEsMy4zLDMuMyIvPjxwYXRoIGlkPSJGaWxsLTUiIGNsYXNzPSJjbHMtMSIgZD0iTTIxLjIsMjEuMmgtNGEyLDIsMCwwLDAtMiwyVjI0LjVoMS4zMlYyMy4xOGEuNjcuNjcsMCwwLDEsLjY2LS42Nmg0YS42Ny42NywwLDAsMSwuNjYuNjZWMjQuNWgxLjMyVjIzLjE4YTIsMiwwLDAsMC0yLTIiLz48cGF0aCBpZD0iRmlsbC03IiBjbGFzcz0iY2xzLTEiIGQ9Ik0xOS4yMiwxNi41OEExLjMyLDEuMzIsMCwxLDEsMTcuOSwxNy45YTEuMzIsMS4zMiwwLDAsMSwxLjMyLTEuMzJtMCw0YTIuNjQsMi42NCwwLDEsMC0yLjY0LTIuNjQsMi42NCwyLjY0LDAsMCwwLDIuNjQsMi42NCIvPjxnIGNsYXNzPSJjbHMtMyI+PHBhdGggaWQ9IkZpbGwtOSIgY2xhc3M9ImNscy0xIiBkPSJNMzEuNzYsMzAuNDRoLTRhMiwyLDAsMCwwLTIsMnYxLjMyaDEuMzJWMzIuNDJhLjY3LjY3LDAsMCwxLC42Ni0uNjZoNGEuNjcuNjcsMCwwLDEsLjY2LjY2djEuMzJoMS4zMlYzMi40MmEyLDIsMCwwLDAtMi0yIi8+PC9nPjxwYXRoIGlkPSJGaWxsLTEyIiBjbGFzcz0iY2xzLTEiIGQ9Ik0zMS4xLDI3LjE0YTEuMzIsMS4zMiwwLDEsMS0xLjMyLTEuMzIsMS4zMiwxLjMyLDAsMCwxLDEuMzIsMS4zMm0tNCwwYTIuNjQsMi42NCwwLDEsMCwyLjY0LTIuNjQsMi42NCwyLjY0LDAsMCwwLTIuNjQsMi42NCIvPjwvc3ZnPg==;fontFamily=IBM Plex Sans;fontSource=fonts%2FIBMPlexSans-Regular.woff;fontSize=14;labelPosition=center;verticalLabelPosition=bottom;align=center;verticalAlign=top;spacingTop=-7;" parent="NlKDrDCATsBkYaBcqIYO-61" vertex="1">
          <mxGeometry x="149" y="60" width="48" height="48" as="geometry" />
        </mxCell>
        <mxCell id="NlKDrDCATsBkYaBcqIYO-67" value="" style="endArrow=none;html=1;rounded=0;entryX=0.5;entryY=1;entryDx=0;entryDy=0;exitX=0.768;exitY=0.6;exitDx=0;exitDy=0;exitPerimeter=0;endFill=0;startArrow=block;startFill=1;" parent="NlKDrDCATsBkYaBcqIYO-9" target="NlKDrDCATsBkYaBcqIYO-61" edge="1">
          <mxGeometry width="50" height="50" relative="1" as="geometry">
            <mxPoint x="320.0239999999999" y="220" as="sourcePoint" />
            <mxPoint x="490" y="110" as="targetPoint" />
          </mxGeometry>
        </mxCell>
        <mxCell id="T_Cg3CoNFJk-gPtNd_mu-1" value="PostgreSQL" style="shape=image;aspect=fixed;image=data:image/svg+xml,PHN2ZyBpZD0iTGF5ZXJfMSIgZGF0YS1uYW1lPSJMYXllciAxIiB4bWxucz0iaHR0cDovL3d3dy53My5vcmcvMjAwMC9zdmciIHZpZXdCb3g9IjAgMCA0OSA0OSI+PGRlZnM+PHN0eWxlPi5jbHMtMXtmaWxsOiMwZjYyZmU7fS5jbHMtMntmaWxsOm5vbmU7fS5jbHMtM3tmaWxsOiNmZmY7fTwvc3R5bGU+PC9kZWZzPjxyZWN0IGNsYXNzPSJjbHMtMSIgeD0iMC41IiB5PSIwLjUiIHdpZHRoPSI0OCIgaGVpZ2h0PSI0OCIvPjxyZWN0IGNsYXNzPSJjbHMtMiIgeD0iMTQuNSIgeT0iMTQuNSIgd2lkdGg9IjIwIiBoZWlnaHQ9IjIwIi8+PHBhdGggY2xhc3M9ImNscy0zIiBkPSJNMTcuMzgsMjkuNXYtMTBoNC41MWEyLjg0LDIuODQsMCwwLDEsMywzLjEsMi44NCwyLjg0LDAsMCwxLTMsMy4xMUgxOS4yN1YyOS41Wk0xOS4yNywyNGgyLjQ1QTEuMDYsMS4wNiwwLDAsMCwyMi45LDIyLjl2LS42NmExLDEsMCwwLDAtMS4xOC0xLjEySDE5LjI3WiIvPjxwYXRoIGNsYXNzPSJjbHMtMyIgZD0iTTI4Ljg2LDMyLjU1Yy0yLjUzLDAtMy40OS0uNjYtMy40OS0xLjc3YTEuMzksMS4zOSwwLDAsMSwxLjM0LTEuNDR2LS4xNmExLjIzLDEuMjMsMCwwLDEtMS0xLjI1YzAtLjc3LjY2LTEuMTYsMS4zOC0xLjMydi0uMDZhMi4yNiwyLjI2LDAsMCwxLTEuMzYtMi4xOGMwLTEuNTIsMS4wOC0yLjU0LDMuMS0yLjU0YTQuMTUsNC4xNSwwLDAsMSwxLjMxLjE4di0uMjRhMSwxLDAsMCwxLDEuMDYtMS4wOUgzMi40djEuNEgzMC44di4yMUEyLjI0LDIuMjQsMCwwLDEsMzIsMjQuMzdjMCwxLjUxLTEuMDcsMi41MS0zLjExLDIuNTFhNC40NCw0LjQ0LDAsMCwxLTEuMTUtLjEzLjc3Ljc3LDAsMCwwLS41My42OGMwLC4zNy4zMi41NiwxLC41NmgyYzEuODQsMCwyLjYzLjc5LDIuNjMsMi4xNEMzMi44LDMxLjcsMzEuNzQsMzIuNTUsMjguODYsMzIuNTVabS45NC0zSDI3LjI0YS45LjksMCwwLDAtLjM5Ljc3YzAsLjU4LjQzLjkyLDEuNTguOTJoLjkyYzEuMTksMCwxLjczLS4zLDEuNzMtLjkzUzMwLjczLDI5LjU5LDI5LjgsMjkuNTlabS40MS01LjExdi0uMjRjMC0uNzYtLjQ3LTEuMTUtMS4zNS0xLjE1cy0xLjM1LjM5LTEuMzUsMS4xNXYuMjRjMCwuNzUuNDgsMS4xNSwxLjM1LDEuMTVTMzAuMjEsMjUuMjMsMzAuMjEsMjQuNDhaIi8+PC9zdmc+;fontFamily=IBM Plex Sans;fontSource=fonts%2FIBMPlexSans-Regular.woff;fontSize=14;labelPosition=center;verticalLabelPosition=bottom;align=center;verticalAlign=top;spacingTop=-7;" vertex="1" parent="NlKDrDCATsBkYaBcqIYO-9">
          <mxGeometry x="590" y="235" width="48" height="48" as="geometry" />
        </mxCell>
        <mxCell id="T_Cg3CoNFJk-gPtNd_mu-2" style="edgeStyle=orthogonalEdgeStyle;rounded=0;orthogonalLoop=1;jettySize=auto;html=1;startArrow=classic;startFill=1;dashed=1;dashPattern=1 1;strokeWidth=2;fillColor=#e1d5e7;strokeColor=#9673a6;" edge="1" parent="NlKDrDCATsBkYaBcqIYO-9" source="T_Cg3CoNFJk-gPtNd_mu-1" target="NlKDrDCATsBkYaBcqIYO-60">
          <mxGeometry relative="1" as="geometry">
            <mxPoint x="440" y="244" as="targetPoint" />
          </mxGeometry>
        </mxCell>
      </root>
    </mxGraphModel>
  </diagram>
</mxfile>
